<mxfile host="app.diagrams.net" modified="2021-09-23T21:07:53.536Z" agent="5.0 (Macintosh; Intel Mac OS X 10_15_6) AppleWebKit/605.1.15 (KHTML, like Gecko) Version/14.1.2 Safari/605.1.15" etag="coKtF4G-hJHqPHo2PRnp" version="15.3.1" type="github" pages="2">
  <diagram id="WmyR-gsmTP-uYOUZJbLA" name="Class diagram ">
    <mxGraphModel dx="755" dy="674" grid="1" gridSize="10" guides="1" tooltips="1" connect="1" arrows="1" fold="1" page="1" pageScale="1" pageWidth="827" pageHeight="1169" math="0" shadow="0">
      <root>
        <mxCell id="0" />
        <mxCell id="1" parent="0" />
        <mxCell id="AJjrN3zmBdhVJnN1uzN0-5" value="ReadJson" style="swimlane;fontStyle=1;align=center;verticalAlign=top;childLayout=stackLayout;horizontal=1;startSize=26;horizontalStack=0;resizeParent=1;resizeParentMax=0;resizeLast=0;collapsible=1;marginBottom=0;" vertex="1" parent="1">
          <mxGeometry x="300" y="200" width="170" height="60" as="geometry" />
        </mxCell>
        <mxCell id="AJjrN3zmBdhVJnN1uzN0-7" value="" style="line;strokeWidth=1;fillColor=none;align=left;verticalAlign=middle;spacingTop=-1;spacingLeft=3;spacingRight=3;rotatable=0;labelPosition=right;points=[];portConstraint=eastwest;" vertex="1" parent="AJjrN3zmBdhVJnN1uzN0-5">
          <mxGeometry y="26" width="170" height="8" as="geometry" />
        </mxCell>
        <mxCell id="AJjrN3zmBdhVJnN1uzN0-8" value="+ method(type): type" style="text;strokeColor=none;fillColor=none;align=left;verticalAlign=top;spacingLeft=4;spacingRight=4;overflow=hidden;rotatable=0;points=[[0,0.5],[1,0.5]];portConstraint=eastwest;" vertex="1" parent="AJjrN3zmBdhVJnN1uzN0-5">
          <mxGeometry y="34" width="170" height="26" as="geometry" />
        </mxCell>
      </root>
    </mxGraphModel>
  </diagram>
  <diagram id="OzCQjho7JEHwc25IL_J0" name="Page-2">
    <mxGraphModel dx="526" dy="1117" grid="1" gridSize="10" guides="1" tooltips="1" connect="1" arrows="1" fold="1" page="1" pageScale="1" pageWidth="827" pageHeight="1169" math="0" shadow="0">
      <root>
        <mxCell id="zv1sEzNDW0LyqS8mXotl-0" />
        <mxCell id="zv1sEzNDW0LyqS8mXotl-1" parent="zv1sEzNDW0LyqS8mXotl-0" />
      </root>
    </mxGraphModel>
  </diagram>
</mxfile>
